<svg width="1445" height="490" viewBox="0 0 1445 490" fill="none" xmlns="http://www.w3.org/2000/svg">
<rect x="2" width="1443" height="490" fill="white"/>
<path fill-rule="evenodd" clip-rule="evenodd" d="M3 489.987L43 424.987C83 359.987 163 230.987 243 158.987C323 86.9874 403 114.987 483 172.987C563 230.987 643 316.987 723 338.987C803 359.987 883 273.987 963 215.987C1043 158.987 1123 129.987 1203 129.987C1283 129.987 1345 172.987 1403 215.987L1443 266.351V489.987H1403C1363 489.987 1283 489.987 1203 489.987C1123 489.987 1043 489.987 963 489.987C883 489.987 803 489.987 723 489.987C643 489.987 563 489.987 483 489.987C403 489.987 323 489.987 243 489.987C163 489.987 83 489.987 43 489.987H3Z" fill="url(#paint0_linear)" fill-opacity="0.75"/>
<path fill-rule="evenodd" clip-rule="evenodd" d="M0 296L95 262.295L209 246L270.244 232L309 198.535L360.325 111.747C501 34 482.7 234.909 584.678 262.295C686.657 262.295 639.067 -13.058 734.247 70.346C985.795 290.771 1235.64 44 1337.62 44C1439.6 44 1392.01 170.171 1443 198.535V362.851V490H1388.61C1337.62 490 1239.04 490 1137.06 490C1035.08 490 933.106 490 831.127 490C729.148 490 627.17 490 525.191 490C423.212 490 321.233 490 270.244 490H0V296Z" fill="url(#paint1_linear)" fill-opacity="0.3"/>
<path opacity="0.7" fill-rule="evenodd" clip-rule="evenodd" d="M1 330.106V294.506V254.872V214.183V184.203V136.235C81.7694 116.248 -7.86494 234.771 60.0996 313.512C127.079 392.253 206.864 431.623 273.843 450.63C341.808 470.994 409.772 450.63 476.752 411.259C544.716 373.246 611.696 313.512 679.66 285.003C746.64 255.135 814.604 255.135 882.569 294.506C949.548 333.876 1017.51 411.259 1084.49 422.12C1152.46 431.623 1219.44 373.247 1253.91 343.379L1287.4 313.512L1324.83 273.465L1354.38 254.872L1386.89 244.107L1427.27 254.872L1445 278.358V377.197V490H1253.91C1219.44 490 1152.46 490 1084.49 490C1017.51 490 949.548 490 882.569 490C814.604 490 746.64 490 679.66 490C611.696 490 544.716 490 476.752 490C409.772 490 341.808 490 273.843 490C206.864 490 138.899 490 71.9195 490C3.95498 490 1 490 1 490V388.068V330.106Z" fill="url(#paint2_linear)"/>
<defs>
<linearGradient id="paint0_linear" x1="3" y1="302.994" x2="1443" y2="302.994" gradientUnits="userSpaceOnUse">
<stop stop-color="#9796F0"/>
<stop offset="1" stop-color="#FBC7D4"/>
</linearGradient>
<linearGradient id="paint1_linear" x1="219.254" y1="240.654" x2="1443" y2="240.654" gradientUnits="userSpaceOnUse">
<stop stop-color="#9796F0"/>
<stop offset="1" stop-color="#FBC7D4"/>
</linearGradient>
<linearGradient id="paint2_linear" x1="-152.659" y1="255.135" x2="1265.73" y2="255.135" gradientUnits="userSpaceOnUse">
<stop stop-color="#817FFD"/>
<stop offset="0.136111" stop-color="#8581FB"/>
<stop offset="1" stop-color="#FFAFC3"/>
</linearGradient>
</defs>
</svg>

