<svg width="1445" height="490" viewBox="0 0 1445 490" fill="none" xmlns="http://www.w3.org/2000/svg">
<rect x="2" width="1443" height="490" fill="white"/>
<path fill-rule="evenodd" clip-rule="evenodd" d="M3 489.987L43 424.987C83 359.987 163 230.987 243 158.987C323 86.9874 403 114.987 483 172.987C563 230.987 643 316.987 723 338.987C803 359.987 883 273.987 963 215.987C1043 158.987 1123 129.987 1203 129.987C1283 129.987 1345 172.987 1403 215.987L1443 266.351V489.987H1403C1363 489.987 1283 489.987 1203 489.987C1123 489.987 1043 489.987 963 489.987C883 489.987 803 489.987 723 489.987C643 489.987 563 489.987 483 489.987C403 489.987 323 489.987 243 489.987C163 489.987 83 489.987 43 489.987H3Z" fill="url(#paint0_linear)" fill-opacity="0.75"/>
<path fill-rule="evenodd" clip-rule="evenodd" d="M0.304085 296V224C0.304085 224 0.304085 370 0.304085 158C0.304085 -54 -12.696 158 131.304 140C275.304 122 41.304 176 249.304 262.295C457.304 348.591 270.548 158 360.629 111.747C450.71 65.4937 483.004 234.909 584.983 262.295C686.962 262.295 639.371 -13.058 734.552 70.346C986.099 290.771 1235.95 44 1337.93 44C1439.91 44 1392.32 170.171 1443.3 198.535V362.851V490H1388.92C1337.93 490 1239.35 490 1137.37 490C1035.39 490 933.41 490 831.432 490C729.453 490 627.474 490 525.495 490C423.516 490 321.537 490 270.548 490H0.304085V296Z" fill="url(#paint1_linear)" fill-opacity="0.3"/>
<path opacity="0.7" fill-rule="evenodd" clip-rule="evenodd" d="M1 330.106V294.506V254.872V214.183V184.203V136.235C81.7694 116.248 -7.86494 234.771 60.0996 313.512C127.079 392.253 206.864 431.623 273.843 450.63C341.808 470.994 409.772 450.63 476.752 411.259C544.716 373.246 611.696 313.512 679.66 285.003C746.64 255.135 814.604 255.135 882.569 294.506C949.548 333.876 1017.51 411.259 1084.49 422.12C1152.46 431.623 1219.44 373.247 1253.91 343.379L1287.4 313.512L1324.83 273.465L1354.38 254.872L1386.89 244.107L1427.27 254.872L1445 278.358V377.197V490H1253.91C1219.44 490 1152.46 490 1084.49 490C1017.51 490 949.548 490 882.569 490C814.604 490 746.64 490 679.66 490C611.696 490 544.716 490 476.752 490C409.772 490 341.808 490 273.843 490C206.864 490 138.899 490 71.9195 490C3.95498 490 1 490 1 490V388.068V330.106Z" fill="url(#paint2_linear)"/>
<defs>
<linearGradient id="paint0_linear" x1="3" y1="302.994" x2="1443" y2="302.994" gradientUnits="userSpaceOnUse">
<stop stop-color="#9796F0"/>
<stop offset="1" stop-color="#FBC7D4"/>
</linearGradient>
<linearGradient id="paint1_linear" x1="219.558" y1="240.654" x2="1443.3" y2="240.654" gradientUnits="userSpaceOnUse">
<stop stop-color="#9796F0"/>
<stop offset="1" stop-color="#FBC7D4"/>
</linearGradient>
<linearGradient id="paint2_linear" x1="-152.659" y1="255.135" x2="1265.73" y2="255.135" gradientUnits="userSpaceOnUse">
<stop stop-color="#817FFD"/>
<stop offset="0.136111" stop-color="#8581FB"/>
<stop offset="1" stop-color="#FFAFC3"/>
</linearGradient>
</defs>
</svg>
